<svg width="64" height="64" viewBox="0 0 64 64" fill="none" xmlns="http://www.w3.org/2000/svg">
<path fill-rule="evenodd" clip-rule="evenodd" d="M4.7935 5.28108C7.93411 1.91171 12.4249 0 17.7925 0H46.2043C51.5853 0 56.0778 1.91101 59.2165 5.28172C62.3424 8.63889 64 13.307 64 18.6152V45.3848C64 50.6931 62.3424 55.361 59.2162 58.7183C56.0768 62.0891 51.5837 64 46.2009 64H17.7925C12.4112 64 7.91953 62.0891 4.78168 58.718C1.65652 55.361 0 50.6927 0 45.3848V18.6152C0 13.3052 1.66515 8.63734 4.7935 5.28108ZM42.6179 22.2014C43.4621 21.0904 43.2458 19.5055 42.1349 18.6615C41.0237 17.8174 39.4388 18.0339 38.5947 19.1448L21.382 41.8014C20.538 42.9123 20.7544 44.4972 21.8654 45.3413C22.9764 46.1854 24.5612 45.9688 25.4053 44.8579L42.6179 22.2014Z" fill="#CEF739"/>
</svg>
